<?xml version="1.0" standalone="no"?>
<!DOCTYPE svg PUBLIC "-//W3C//DTD SVG 20010904//EN"
 "http://www.w3.org/TR/2001/REC-SVG-20010904/DTD/svg10.dtd">
<svg version="1.0" xmlns="http://www.w3.org/2000/svg"
 width="1228.000000pt" height="1228.000000pt" viewBox="0 0 1228.000000 1228.000000"
 preserveAspectRatio="xMidYMid meet">
<metadata>
Created by potrace 1.11, written by Peter Selinger 2001-2013
</metadata>
<g transform="translate(0.000000,1228.000000) scale(0.100000,-0.100000)"
fill="#000000" stroke="none">
<path d="M0 7440 l0 -541 68 3 67 3 3 132 3 131 177 4 c214 5 258 18 352 105
86 79 123 158 128 273 8 154 -51 273 -175 357 -92 61 -157 73 -412 73 l-211 0
0 -540z m515 373 c54 -28 119 -100 136 -149 45 -133 -17 -277 -146 -335 -33
-16 -67 -19 -202 -19 l-163 0 0 266 0 266 168 -4 c147 -3 172 -6 207 -25z"/>
<path d="M900 7440 l0 -540 70 0 70 0 0 95 0 95 190 -95 191 -96 146 3 146 3
-256 130 -255 130 104 6 c89 5 113 11 169 38 199 98 283 335 190 539 -31 67
-120 156 -188 187 -82 38 -142 45 -368 45 l-209 0 0 -540z m516 373 c84 -45
138 -120 150 -210 14 -108 -50 -223 -150 -269 -47 -22 -64 -24 -213 -24 l-163
0 0 266 0 266 168 -4 c149 -3 171 -6 208 -25z"/>
<path d="M1810 7440 l0 -540 335 0 335 0 0 70 0 70 -265 0 -265 0 0 200 0 200
135 0 136 0 -3 68 -3 67 -132 3 -133 3 0 129 0 130 265 0 265 0 0 70 0 70
-335 0 -335 0 0 -540z"/>
<path d="M2968 7970 c-127 -23 -229 -79 -317 -176 -221 -241 -167 -630 112
-808 157 -101 363 -111 529 -27 58 30 148 97 148 111 0 4 -23 25 -51 47 l-52
40 -51 -38 c-94 -72 -231 -97 -347 -63 -112 33 -199 109 -253 223 -28 60 -31
75 -31 161 0 86 3 101 32 162 79 168 255 261 429 229 72 -13 143 -45 192 -86
l30 -25 52 41 52 41 -24 25 c-38 43 -138 102 -203 122 -76 24 -183 33 -247 21z"/>
<path d="M3575 7968 c-3 -7 -4 -249 -3 -538 l3 -525 68 -3 67 -3 0 541 0 540
-65 0 c-43 0 -67 -4 -70 -12z"/>
<path d="M4235 7964 c-249 -55 -425 -273 -425 -525 1 -328 244 -558 565 -535
394 27 627 442 443 789 -111 208 -355 322 -583 271z m210 -140 c112 -29 202
-101 258 -209 31 -57 32 -65 32 -175 0 -106 -2 -120 -28 -173 -64 -130 -193
-217 -337 -225 -140 -8 -227 35 -285 139 -26 47 -30 64 -29 129 1 120 53 201
157 245 116 48 226 -17 151 -91 -24 -25 -35 -26 -75 -10 -12 5 -28 -7 -58 -42
-22 -28 -41 -52 -41 -56 0 -15 86 -47 128 -47 109 -1 187 64 207 172 15 79
-39 174 -120 210 -120 55 -320 -17 -417 -150 l-40 -56 7 39 c16 93 102 208
196 264 82 49 194 63 294 36z"/>
<path d="M4980 7607 c0 -299 3 -384 15 -430 31 -119 91 -199 183 -244 52 -25
69 -28 184 -31 161 -5 215 9 287 74 56 50 89 106 115 193 13 46 16 114 16 433
l0 378 -64 0 -65 0 -3 -382 c-3 -375 -3 -384 -26 -433 -50 -108 -83 -125 -243
-125 -138 0 -175 13 -219 76 -43 64 -50 131 -50 512 l0 352 -65 0 -65 0 0
-373z"/>
<path d="M6221 7966 c-108 -35 -169 -160 -127 -260 20 -49 71 -82 200 -131
140 -53 189 -85 224 -144 23 -40 27 -57 27 -127 0 -72 -3 -86 -30 -129 -119
-192 -383 -175 -476 30 -37 81 -17 212 36 237 22 10 30 8 53 -9 21 -16 27 -28
26 -57 -1 -35 1 -38 58 -67 l59 -30 14 35 c22 51 18 95 -11 155 -58 116 -202
151 -302 74 -76 -57 -114 -224 -79 -344 89 -302 464 -398 678 -172 177 187
144 485 -68 610 -23 13 -87 40 -140 59 -131 46 -143 53 -143 81 0 30 34 63 65
63 39 0 96 -27 133 -63 l33 -31 39 44 c21 25 39 48 40 52 0 5 -16 25 -35 47
-63 70 -187 105 -274 77z"/>
<path d="M7357 7973 c-4 -3 -7 -246 -7 -540 l0 -533 70 0 70 0 0 540 0 540
-63 0 c-35 0 -67 -3 -70 -7z"/>
<path d="M7938 7970 c-47 -14 -88 -44 -116 -84 -23 -34 -27 -49 -27 -113 0
-74 0 -75 41 -112 26 -25 69 -49 125 -70 146 -55 200 -84 240 -129 116 -133
44 -353 -135 -412 -51 -16 -141 -8 -192 18 -40 20 -102 81 -123 120 -51 96
-20 262 50 262 11 0 31 -12 46 -26 20 -20 24 -32 19 -55 -5 -27 -2 -31 54 -59
55 -28 60 -29 68 -12 37 70 15 168 -51 229 -119 110 -286 57 -334 -106 -11
-38 -14 -81 -11 -141 3 -73 9 -98 36 -152 79 -162 274 -257 443 -218 125 29
236 117 287 228 38 82 43 214 13 305 -40 120 -122 189 -301 252 -138 49 -140
50 -140 85 0 33 31 60 70 60 38 -1 103 -34 132 -68 l26 -31 41 51 41 50 -22
30 c-54 76 -192 125 -280 98z"/>
<path d="M8525 7968 c-3 -7 -4 -249 -3 -538 l3 -525 268 -3 267 -2 0 70 0 70
-200 0 -200 0 0 470 0 470 -65 0 c-43 0 -67 -4 -70 -12z"/>
<path d="M9582 7968 c-10 -13 -452 -1051 -452 -1062 0 -3 33 -6 73 -6 l74 0
24 63 25 62 327 3 327 2 29 -65 30 -65 70 0 c39 0 71 4 71 8 0 5 -99 242 -221
528 -122 285 -223 525 -226 532 -3 8 -28 12 -73 12 -42 0 -71 -5 -78 -12z
m210 -490 c70 -166 126 -303 124 -305 -2 -2 -120 -2 -264 -1 l-261 3 58 135
c32 74 90 213 131 308 40 95 75 170 78 167 3 -3 63 -141 134 -307z"/>
<path d="M10250 7440 l0 -541 68 3 67 3 5 419 5 420 339 -422 339 -422 63 0
64 0 0 540 0 540 -65 0 -65 0 0 -421 c0 -280 -3 -418 -10 -414 -6 3 -139 167
-297 363 -158 196 -309 383 -336 415 l-49 57 -64 0 -64 0 0 -540z"/>
<path d="M11335 7969 c-3 -8 -4 -250 -3 -539 l3 -525 255 0 c240 0 259 2 319
23 220 79 361 274 363 502 3 246 -148 448 -392 525 -75 24 -537 35 -545 14z
m474 -139 c119 -22 232 -108 285 -216 99 -202 15 -440 -192 -541 -55 -27 -64
-28 -244 -31 l-188 -4 0 401 0 401 144 0 c79 0 166 -4 195 -10z"/>
<path d="M0 5355 l0 -1055 383 -2 c575 -4 603 -2 776 61 324 118 567 387 658
729 23 86 26 116 26 262 0 146 -3 176 -26 262 -51 193 -149 360 -290 495 -181
174 -383 267 -628 293 -56 5 -281 10 -500 10 l-399 0 0 -1055z m995 762 c136
-40 260 -112 357 -209 153 -153 231 -344 230 -563 -1 -352 -219 -641 -567
-756 -66 -22 -87 -23 -412 -27 l-343 -3 0 791 0 791 338 -3 c282 -3 347 -7
397 -21z"/>
<path d="M2050 5355 l0 -1055 130 0 130 0 0 1055 0 1055 -130 0 -130 0 0
-1055z"/>
<path d="M2580 5355 l0 -1055 130 0 130 0 0 866 c0 505 4 864 9 862 5 -1 187
-155 404 -340 l396 -338 109 0 110 0 406 345 c223 190 408 345 411 345 3 0 5
-391 5 -870 l0 -870 130 0 130 0 0 1055 0 1055 -132 0 -133 0 -460 -395 c-253
-217 -462 -394 -465 -394 -3 0 -211 177 -464 394 l-458 395 -129 0 -129 0 0
-1055z"/>
<path d="M6962 6395 c-75 -21 -134 -58 -191 -121 -70 -76 -95 -145 -96 -259 0
-79 3 -97 29 -148 49 -101 129 -151 396 -247 277 -100 379 -170 445 -303 99
-201 55 -448 -108 -604 -213 -205 -528 -202 -737 6 -115 115 -167 250 -157
406 13 194 106 291 215 225 63 -38 85 -104 57 -172 -5 -14 14 -27 104 -72 61
-31 115 -56 121 -56 16 0 41 66 50 130 37 265 -205 499 -465 451 -166 -31
-280 -153 -330 -356 -26 -104 -24 -276 4 -385 60 -227 221 -421 434 -521 205
-95 477 -93 680 6 206 101 355 279 419 501 31 109 31 321 0 437 -29 107 -85
209 -157 285 -107 115 -223 180 -475 267 -174 60 -228 84 -250 110 -30 36 -2
123 50 150 36 19 122 19 182 1 62 -18 131 -68 171 -121 17 -24 35 -44 39 -45
4 0 41 41 84 91 74 87 76 91 63 116 -46 86 -167 179 -278 214 -88 27 -230 34
-299 14z"/>
<path d="M8062 5653 c3 -687 5 -764 21 -818 77 -265 215 -430 423 -507 54 -21
81 -23 314 -26 280 -4 325 1 427 49 166 79 292 246 355 474 22 79 23 89 26
833 l3 752 -125 0 -125 0 -4 -722 c-4 -790 -3 -777 -64 -906 -37 -80 -120
-163 -194 -196 l-60 -27 -227 3 c-222 3 -228 4 -284 30 -102 48 -171 141 -215
293 -15 54 -17 132 -21 793 l-3 732 -125 0 -125 0 3 -757z"/>
<path d="M9900 5355 l0 -1055 130 0 130 0 0 870 0 870 403 -345 402 -344 111
-1 111 0 406 345 c224 190 409 345 412 345 3 0 5 -391 5 -870 l0 -870 130 0
130 0 0 1055 0 1055 -132 0 -133 0 -460 -395 c-253 -216 -462 -394 -465 -394
-3 0 -212 177 -464 394 l-459 395 -128 0 -129 0 0 -1055z"/>
</g>
</svg>
